<?xml version="1.0" encoding="UTF-8" standalone="no"?>
<svg
   xmlns:dc="http://purl.org/dc/elements/1.1/"
   xmlns:cc="http://creativecommons.org/ns#"
   xmlns:rdf="http://www.w3.org/1999/02/22-rdf-syntax-ns#"
   xmlns:svg="http://www.w3.org/2000/svg"
   xmlns="http://www.w3.org/2000/svg"
   viewBox="0 0 2829.3333 2829.3333"
   height="2829.3333"
   width="2829.3333"
   xml:space="preserve"
   id="svg2"
   version="1.1"><metadata
     id="metadata8"><rdf:RDF><cc:Work
         rdf:about=""><dc:format>image/svg+xml</dc:format><dc:type
           rdf:resource="https:///purl.org/dc/dcmitype/StillImage" /></cc:Work></rdf:RDF></metadata><defs
     id="defs6" /><g
     transform="matrix(1.3333333,0,0,-1.3333333,0,2829.3333)"
     id="g10"><g
       transform="scale(0.1)"
       id="g12"><g
         transform="scale(1.12201)"
         id="g14"><path
           id="path16"
           style="fill:#231f20;fill-opacity:1;fill-rule:nonzero;stroke:none"
           d="M 15270.9,12928.4 12383.7,16300 v 0 l 2887.2,-3371.6 v 0" /></g><g
         transform="scale(1.18543)"
         id="g18"><path
           id="path20"
           style="fill:#231f20;fill-opacity:1;fill-rule:nonzero;stroke:none"
           d="m 11636,16300 c 8.6,-7.7 16.9,-15.7 24.6,-24.6 -7.6,8.9 -15.9,16.9 -24.6,24.6" /></g><g
         transform="scale(1.10944)"
         id="g22"><path
           id="path24"
           style="fill:#231f20;fill-opacity:1;fill-rule:nonzero;stroke:none"
           d="m 16031.1,12535.4 c -0.3,0 -0.6,0 -0.9,0 h -269.8 V 3193.52 c 0,-554.43 -451.1,-1005.47 -1005.5,-1005.47 H 6974.99 c -327.78,0 -635.96,160.62 -824.35,429.77 -85.43,122.04 -253.66,151.88 -375.78,66.34 -122.07,-85.45 -151.77,-253.65 -66.31,-375.78 289.29,-413.18 762.73,-659.97 1266.44,-659.97 h 7779.91 c 852,0 1545.1,693.14 1545.1,1545.11 v 9593.78 c -9.2,-140.7 -125.9,-251.9 -268.9,-251.9" /></g><g
         transform="scale(1.19023)"
         id="g26"><path
           id="path28"
           style="fill:#231f20;fill-opacity:1;fill-rule:nonzero;stroke:none"
           d="m 11335.3,16282.1 c 36.6,13.5 74.9,17.9 112,14.2 -8.2,0.8 -16.5,1.4 -24.8,1.4 H 6501.53 c -794.11,0 -1440.2,-646.1 -1440.2,-1440.2 V 6485.31 c 0,-138.96 112.6,-251.55 251.5,-251.55 138.89,0 251.49,112.59 251.49,251.55 v 8372.19 c 0,516.7 420.43,937.2 937.21,937.2 h 4669.57 v 251.5 c 0,105.3 65.5,199.4 164.2,235.9" /></g><g
         transform="scale(1.18708)"
         id="g30"><path
           id="path32"
           style="fill:#231f20;fill-opacity:1;fill-rule:nonzero;stroke:none"
           d="m 11590,16300 c 7.7,-5 15.2,-10.5 22.4,-16.4 -7.2,5.9 -14.7,11.4 -22.4,16.4" /></g><g
         transform="scale(1.18849)"
         id="g34"><path
           id="path36"
           style="fill:#231f20;fill-opacity:1;fill-rule:nonzero;stroke:none"
           d="m 11540.6,16300 c 10.3,-4.5 20.2,-9.6 29.8,-15.4 -9.6,5.8 -19.5,10.9 -29.8,15.4" /></g><g
         transform="scale(1.18934)"
         id="g38"><path
           id="path40"
           style="fill:#231f20;fill-opacity:1;fill-rule:nonzero;stroke:none"
           d="m 11499.3,16300 c 8.6,-2.5 17.2,-5.4 25.6,-8.8 -8.4,3.4 -17,6.3 -25.6,8.8" /></g><g
         transform="scale(1.18995)"
         id="g42"><path
           id="path44"
           style="fill:#231f20;fill-opacity:1;fill-rule:nonzero;stroke:none"
           d="m 11451.6,16300 c 11.4,-1.2 22.5,-3.4 33.6,-6.1 -11.1,2.7 -22.2,4.9 -33.6,6.1" /></g><g
         transform="scale(1.19023)"
         id="g46"><path
           id="path48"
           style="fill:#231f20;fill-opacity:1;fill-rule:nonzero;stroke:none"
           d="m 11674,13124.7 v 2241.1 0 l 2721.6,-3178.3 v 0 h -1784.4 c -516.8,0 -937.2,420.3 -937.2,937.2 z m 3447.8,-1012 -3508.2,4097.1 c -7.7,8.8 -16,16.8 -24.6,24.5 -2.4,2.1 -4.9,4.1 -7.4,6.2 -7.1,5.9 -14.6,11.4 -22.3,16.4 -2,1.2 -3.9,2.7 -5.8,3.9 -9.6,5.8 -19.5,10.9 -29.7,15.4 -2.5,1 -5,1.9 -7.4,2.9 -8.4,3.4 -17,6.3 -25.7,8.8 -2.7,0.8 -5.4,1.6 -8.2,2.3 -11,2.7 -22.2,4.9 -33.5,6 -0.6,0.1 -1.1,0.1 -1.7,0.1 -37.1,3.7 -75.4,-0.7 -112,-14.2 -98.7,-36.5 -164.2,-130.6 -164.2,-235.9 v -251.5 -2670 c 0,-794.2 646,-1440.2 1440.1,-1440.2 h 2079.4 251.5 c 0.2,0 0.5,0 0.8,0 133.3,0 242.1,103.7 250.7,234.8 0.3,5.5 0.8,11 0.8,16.7 0,68.8 -27.7,131.3 -72.6,176.7" /></g><path
         id="path50"
         style="fill:#231f20;fill-opacity:1;fill-rule:nonzero;stroke:none"
         d="m 5412.42,3620.6 c -872.41,0 -1576.08,412.9 -1673.16,981.7 -54.51,319.3 81.46,659.1 382.93,956.6 329.78,325.6 808.26,555.5 1347.28,647.6 163.95,28 329.18,42.1 491.16,42.1 872.32,0 1576.01,-412.9 1673.22,-981.6 117.54,-689.4 -674.81,-1424 -1730.28,-1604.2 -163.94,-28 -329.19,-42.2 -491.15,-42.2 z m 2814.82,1297.9 c -49.72,-96.4 -150.06,-162.4 -266.02,-162.4 -165.33,0 -299.34,134 -299.34,299.3 V 6300 c -413.17,342.1 -1014.44,547.3 -1701.25,547.3 -195.61,0 -394.76,-17.1 -591.86,-50.7 C 4709.94,6684.2 4117.87,6395.9 3701.6,5985 3256.93,5546 3060.72,5019.3 3149.1,4501.6 3297.8,3630.3 4228.52,3021.9 5412.42,3021.9 c 195.62,0 394.74,17.1 591.86,50.8 1193.92,203.7 2093.47,983.5 2222.96,1845.8" /><path
         id="path52"
         style="fill:#231f20;fill-opacity:1;fill-rule:nonzero;stroke:none"
         d="m 7661.88,5055.4 c 0,-165.3 134.01,-299.3 299.34,-299.3 115.96,0 216.3,66 266.02,162.4 21.16,41.1 33.33,87.5 33.33,136.9 v 8699.1 c 439.74,-414.8 1058.49,-651.2 1634.88,-871.4 574.85,-219.6 1117.85,-427 1472.85,-776.3 568.8,-559.9 514,-1503.2 -167.6,-2883.9 -73.2,-148.3 -12.4,-327.8 135.9,-401 148.3,-73.2 327.7,-12.3 400.9,135.9 298,603.6 1204.6,2440.2 50.7,3575.8 -444.3,437.1 -1072,676.9 -1679.1,908.8 -991.91,378.9 -1848.53,706.1 -1848.53,1773 0,165.3 -134.05,299.4 -299.35,299.4 -165.33,0 -299.34,-134.1 -299.34,-299.4 V 6300 5055.4" /><path
         id="path54"
         style="fill:#231f20;fill-opacity:1;fill-rule:nonzero;stroke:none"
         d="m 15989.3,7371.1 c 0,165.3 -134,299.3 -299.4,299.3 h -5083.6 c -165.3,0 -299.3,-134 -299.3,-299.3 0,-165.3 134,-299.3 299.3,-299.3 h 5083.6 c 165.4,0 299.4,134 299.4,299.3" /><path
         id="path56"
         style="fill:#231f20;fill-opacity:1;fill-rule:nonzero;stroke:none"
         d="m 10992.1,6024.1 c -165.4,0 -299.4,-134.1 -299.4,-299.4 0,-165.3 134,-299.3 299.4,-299.3 h 4368.6 c 165.3,0 299.4,134 299.4,299.3 0,165.3 -134.1,299.4 -299.4,299.4 h -4368.6" /></g></g></svg>